<?xml version="1.0" standalone="no"?>
<!DOCTYPE svg PUBLIC "-//W3C//DTD SVG 20010904//EN"
 "http://www.w3.org/TR/2001/REC-SVG-20010904/DTD/svg10.dtd">
<svg version="1.0" xmlns="http://www.w3.org/2000/svg"
 width="500.234975pt" height="67.851302pt" viewBox="0 0 500.234975 67.851302"
 preserveAspectRatio="xMidYMid meet">
<metadata>Created by Svg.la</metadata>
<g transform="translate(-2.765025,69.905801) scale(0.100000,-0.100000)"
fill="#1163a2" stroke="none">
<path d="M2500 682 c-44 -22 -60 -53 -60 -119 l0 -53 -35 0 -35 0 0 -65 0 -65
31 0 31 0 -6 -57 c-3 -32 -8 -111 -12 -175 l-6 -118 95 0 c77 0 96 3 101 16 3
9 6 53 6 98 0 46 3 117 6 159 l7 77 48 0 49 0 0 65 0 65 -55 0 c-61 0 -71 14
-34 51 20 20 38 20 102 2 16 -4 18 2 15 58 -4 75 -7 76 -133 78 -58 1 -90 -4
-115 -17z"/>
<path d="M950 625 l0 -55 89 0 89 0 6 31 c16 80 17 79 -89 79 l-95 0 0 -55z"/>
<path d="M2130 625 l0 -55 89 0 89 0 6 31 c16 80 17 79 -89 79 l-95 0 0 -55z"/>
<path d="M76 654 c-3 -9 -6 -39 -6 -67 0 -46 -18 -288 -36 -484 l-6 -73 85 0
85 0 6 58 c3 31 8 124 12 206 4 81 10 143 14 136 4 -7 27 -99 51 -206 l44
-194 91 0 90 0 23 71 c12 38 45 132 72 207 l50 137 -6 -207 -6 -208 84 0 84 0
7 188 c3 103 9 247 13 320 l6 132 -134 0 -134 0 -17 -53 c-9 -28 -39 -115 -66
-191 l-49 -139 -6 47 c-5 36 -53 247 -73 324 -2 9 -39 12 -138 12 -113 0 -135
-2 -140 -16z"/>
<path d="M1246 648 c-3 -13 -6 -59 -6 -103 0 -44 -7 -170 -15 -280 -8 -110
-15 -208 -15 -217 0 -16 11 -18 95 -18 l94 0 5 33 c2 17 10 132 16 253 6 122
13 251 17 288 l6 66 -95 0 c-91 0 -96 -1 -102 -22z"/>
<path d="M1635 506 l-60 -11 -8 -59 c-5 -32 -6 -60 -4 -62 2 -2 24 3 48 11
104 38 181 40 194 7 10 -26 -25 -47 -109 -65 -143 -32 -206 -82 -206 -165 0
-99 60 -145 182 -140 l71 3 13 45 c19 61 18 63 -15 57 -59 -12 -97 19 -66 53
8 9 34 22 58 29 23 7 50 15 60 17 16 5 17 -2 11 -95 l-7 -101 95 0 95 0 7 52
c3 29 6 121 6 205 0 146 -1 152 -24 180 -14 16 -42 35 -64 41 -48 15 -196 14
-277 -2z"/>
<path d="M2950 511 c-88 -27 -157 -89 -179 -160 -42 -143 20 -273 152 -317 68
-23 207 -16 262 13 91 48 135 123 135 230 -1 115 -54 192 -159 228 -46 16
-167 19 -211 6z m154 -161 c28 -27 27 -110 0 -147 -80 -106 -200 21 -127 135
28 45 88 50 127 12z"/>
<path d="M3680 504 c-19 -8 -42 -22 -52 -31 -17 -15 -18 -14 -18 10 l0 27 -94
0 -95 0 -5 -52 c-3 -29 -7 -109 -10 -178 -3 -69 -9 -153 -12 -188 l-7 -62 96
0 96 0 5 33 c3 17 7 72 11 120 8 131 34 180 97 180 52 0 58 -19 58 -185 l0
-148 94 0 93 0 7 53 c3 28 6 117 6 197 0 165 -11 199 -75 226 -44 18 -150 17
-195 -2z"/>
<path d="M936 468 c-3 -24 -7 -108 -10 -188 -3 -80 -9 -169 -12 -197 l-7 -53
97 0 c53 0 96 3 96 8 1 4 5 90 10 192 5 102 12 206 16 233 l7 47 -96 0 -96 0
-5 -42z"/>
<path d="M2116 468 c-3 -24 -7 -108 -10 -188 -3 -80 -9 -169 -12 -197 l-7 -53
97 0 c53 0 96 3 96 8 1 4 5 90 10 192 5 102 12 206 16 233 l7 47 -96 0 -96 0
-5 -42z"/>
<path d="M4189 251 c-26 -26 -29 -36 -29 -91 0 -55 3 -65 29 -91 25 -24 37
-29 81 -29 41 0 56 5 76 25 14 14 24 31 21 38 -6 19 -46 21 -53 2 -19 -49 -86
-33 -99 25 -15 69 29 135 74 110 12 -6 21 -17 21 -25 0 -10 10 -15 30 -15 37
0 40 21 5 55 -19 20 -34 25 -75 25 -44 0 -56 -5 -81 -29z"/>
<path d="M4439 251 c-26 -26 -29 -36 -29 -91 0 -55 3 -65 29 -91 24 -24 38
-29 76 -29 25 0 55 5 66 10 64 35 64 185 0 220 -11 5 -41 10 -66 10 -38 0 -52
-5 -76 -29z m101 -11 c29 -15 44 -73 30 -115 -15 -46 -43 -62 -75 -41 -43 28
-44 121 -2 151 25 18 23 18 47 5z"/>
<path d="M4690 159 l0 -119 30 0 30 0 0 85 c0 79 2 86 25 101 46 30 55 15 55
-91 l0 -95 30 0 30 0 0 85 c0 80 1 85 26 102 46 30 59 10 62 -96 3 -89 3 -91
27 -91 25 0 25 0 25 103 0 88 -3 106 -18 120 -21 19 -83 22 -113 6 -14 -7 -24
-7 -33 0 -6 5 -49 10 -94 9 l-82 0 0 -119z"/>
<path d="M4040 60 c0 -27 3 -30 30 -30 27 0 30 3 30 30 0 27 -3 30 -30 30 -27
0 -30 -3 -30 -30z"/>
</g>
</svg>
